<?xml version="1.0" encoding="UTF-8" standalone="no"?>
<!-- Created with Inkscape (http://www.inkscape.org/) -->

<svg
   xmlns:dc="http://purl.org/dc/elements/1.1/"
   xmlns:cc="http://creativecommons.org/ns#"
   xmlns:rdf="http://www.w3.org/1999/02/22-rdf-syntax-ns#"
   xmlns:svg="http://www.w3.org/2000/svg"
   xmlns="http://www.w3.org/2000/svg"
   xmlns:xlink="http://www.w3.org/1999/xlink"
   xmlns:sodipodi="http://sodipodi.sourceforge.net/DTD/sodipodi-0.dtd"
   xmlns:inkscape="http://www.inkscape.org/namespaces/inkscape"
   version="1.1"
   id="svg869"
   width="1024"
   height="1024"
   viewBox="0 0 1024 1024"
   sodipodi:docname="logo-doodle.svg"
   inkscape:version="0.92.3 (2405546, 2018-03-11)">
  <metadata
     id="metadata875">
    <rdf:RDF>
      <cc:Work
         rdf:about="">
        <dc:format>image/svg+xml</dc:format>
        <dc:type
           rdf:resource="http://purl.org/dc/dcmitype/StillImage" />
        <dc:title />
      </cc:Work>
    </rdf:RDF>
  </metadata>
  <defs
     id="defs873">
    <linearGradient
       inkscape:collect="always"
       id="linearGradient836">
      <stop
         style="stop-color:#6495ed;stop-opacity:1;"
         offset="0"
         id="stop832" />
      <stop
         style="stop-color:#1a64e6;stop-opacity:1"
         offset="1"
         id="stop834" />
    </linearGradient>
    <inkscape:perspective
       sodipodi:type="inkscape:persp3d"
       inkscape:vp_x="-4625.3255 : 1435.6313 : 1"
       inkscape:vp_y="0 : 1000 : 0"
       inkscape:vp_z="3583.4025 : 2430.9545 : 1"
       inkscape:persp3d-origin="512 : 341.33333 : 1"
       id="perspective966" />
    <filter
       style="color-interpolation-filters:sRGB;"
       inkscape:label="Blur"
       id="filter1064">
      <feGaussianBlur
         stdDeviation="16 16"
         result="blur"
         id="feGaussianBlur1062" />
    </filter>
    <linearGradient
       inkscape:collect="always"
       xlink:href="#linearGradient836"
       id="linearGradient838"
       x1="512"
       y1="0"
       x2="1024"
       y2="1024"
       gradientUnits="userSpaceOnUse" />
  </defs>
  <sodipodi:namedview
     pagecolor="#ffffff"
     bordercolor="#666666"
     borderopacity="1"
     objecttolerance="10"
     gridtolerance="10"
     guidetolerance="10"
     inkscape:pageopacity="0"
     inkscape:pageshadow="2"
     inkscape:window-width="1920"
     inkscape:window-height="1052"
     id="namedview871"
     showgrid="false"
     inkscape:zoom="0.41992188"
     inkscape:cx="512"
     inkscape:cy="512"
     inkscape:window-x="1920"
     inkscape:window-y="0"
     inkscape:window-maximized="1"
     inkscape:current-layer="layer3"
     inkscape:snap-global="true"
     inkscape:snap-bbox="true"
     inkscape:snap-bbox-edge-midpoints="true" />
  <g
     inkscape:groupmode="layer"
     id="layer2"
     inkscape:label="bg"
     style="display:none;opacity:1">
    <image
       sodipodi:absref="/home/sal/Desktop/code/projects/shelflife-app/app/assets/images/logo-doodle.png"
       xlink:href="logo-doodle.png"
       width="1382.4"
       height="1382.4"
       preserveAspectRatio="none"
       style="image-rendering:optimizeQuality"
       id="image877"
       x="-154.10782"
       y="-149.32834" />
  </g>
  <g
     inkscape:groupmode="layer"
     id="layer3"
     inkscape:label="grads">
    <rect
       style="opacity:0.85;vector-effect:none;fill:url(#linearGradient838);fill-opacity:1;stroke:none;stroke-width:0.99999994;stroke-linecap:butt;stroke-linejoin:miter;stroke-miterlimit:4;stroke-dasharray:none;stroke-dashoffset:0;stroke-opacity:1;paint-order:markers stroke fill"
       id="rect1066"
       width="1024"
       height="1024"
       x="0"
       y="0"
       ry="192" />
    <g
       id="g968"
       style="opacity:0.85;vector-effect:none;fill:#f7d3bc;fill-opacity:0.9254902;stroke:none;stroke-width:0.99999994;stroke-linecap:butt;stroke-linejoin:miter;stroke-miterlimit:4;stroke-dasharray:none;stroke-dashoffset:0;stroke-opacity:1;paint-order:markers stroke fill;filter:url(#filter1064)">
      <path
         d="M 220,232 556.8111,281.27613 789.34916,146.15309 478.98519,108.65898 Z"
         style="fill:#808080;fill-rule:evenodd;stroke:none;stroke-linejoin:round"
         id="path1002"
         inkscape:connector-curvature="0"
         sodipodi:nodetypes="ccccc" />
      <path
         d="M 556.8111,281.27613 525.74459,922.44792 801.29782,738.18419 789.34916,146.15309 Z"
         style="fill:#bfbfbf;fill-rule:evenodd;stroke:none;stroke-linejoin:round"
         id="path1004"
         inkscape:connector-curvature="0"
         sodipodi:nodetypes="ccccc" />
      <path
         d="m 220,232 336.8111,49.27613 c 14.34842,153.34812 24.26298,254.7048 -31.06651,641.17179 L 262.04359,858.7093 C 189.39658,365.3538 313.54925,816.33915 220,232 Z"
         style="fill:#ffffff;fill-rule:evenodd;stroke:none;stroke-linejoin:round"
         id="path1006"
         inkscape:connector-curvature="0"
         sodipodi:nodetypes="ccccc" />
    </g>
  </g>
  <g
     inkscape:groupmode="layer"
     id="layer1"
     inkscape:label="ink"
     sodipodi:insensitive="true">
    <path
       style="opacity:1;fill:#000000;stroke-width:1.35000002"
       d="m 485.11718,928.51393 c -6.6825,-1.04104 -23.6925,-4.95267 -37.8,-8.69252 -30.03614,-7.96246 -100.6482,-25.6708 -134.11197,-33.63309 -30.29771,-7.20896 -60.01086,-18.73932 -62.15065,-24.11795 -1.95876,-4.92353 -5.82841,-42.08617 -11.69339,-112.29871 -3.9674,-47.49562 -4.81204,-63.50072 -4.41713,-83.7 0.58576,-29.96113 2.48732,-36.44201 5.08711,-17.33779 0.94401,6.93704 2.86687,20.51029 4.273,30.16279 1.40614,9.6525 3.44107,23.625 4.52208,31.05 1.081,7.425 3.51739,31.1175 5.41418,52.65 4.35413,49.42821 9.1966,92.19309 10.56289,93.28266 1.43839,1.14711 13.11223,6.48959 18.76397,8.58725 9.8283,3.64779 17.85677,5.66781 59.12491,14.87615 19.67625,4.39044 54,12.21827 76.275,17.39516 22.275,5.1769 48.70125,11.02051 58.725,12.98579 28.37184,5.56266 31.16711,4.70002 46.18041,1.27365 14.23589,-3.24895 26.16378,-12.99693 38.92946,-20.08593 21.69505,-12.04763 32.16458,-16.75617 63.94946,-38.11629 40.97922,-27.53893 82.52086,-57.62366 110.86777,-80.29119 26.5586,-21.23753 40.45287,-31.03279 50.25184,-35.42688 5.58038,-2.50237 5.65621,-2.62159 2.89697,-4.55424 -2.98728,-2.09236 -2.98416,-3.04698 0.0487,-14.93868 1.05879,-4.15145 1.33957,-40.99259 0.962,-126.225 -0.47366,-106.92693 -1.00305,-131.4385 -4.74254,-219.58745 -3.02836,-71.38584 -4.21422,-114.91215 -4.22671,-155.1375 -0.009,-30.75187 0.29589,-55.59927 0.67874,-55.21642 1.90605,1.90606 10.59661,183.09359 16.9532,353.45392 1.55638,41.71195 3.6509,198.44303 2.75935,206.47942 -0.40061,3.61108 -2.52161,6.63728 -9.46188,13.5 -9.59317,9.48599 -57.28813,50.9038 -75.07176,65.19154 -39.18314,31.48057 -96.73368,68.9982 -146.8125,100.91127 -11.5365,7.35171 -20.10021,14.35608 -35.3563,20.83693 -8.57193,5.16175 -22.76146,8.9524 -32.74774,8.74838 -3.56592,-0.0729 -11.951,-0.98423 -18.6335,-2.02527 z m -4.725,-292.18047 c -32.53596,-1.71753 -65.70974,-7.95607 -199.8,-37.57362 -10.02375,-2.21403 -22.43646,-4.29582 -27.58379,-4.62621 -10.24001,-0.65726 -14.26621,-3.44743 -14.26621,-9.88652 0,-6.03715 4.37216,-8.62545 14.57012,-8.62545 h 9.1701 l -5.00692,-30.0375 c -4.32889,-25.9699 -19.42495,-134.46601 -33.66994,-241.9875 -2.36088,-17.82 -4.37033,-38.01474 -4.46544,-44.87721 -0.095,-6.86247 -0.60766,-12.48185 -1.13901,-12.4875 -1.84095,-0.0196 -2.77456,0.64717 -6.52915,-0.1104 -12.86553,-2.59595 -11.20753,-20.65024 1.74702,-19.02372 7.59723,0.95388 25.34246,2.83266 33.06003,4.07537 6.09175,0.98091 7.16252,0.81977 7.79501,-1.17301 0.40326,-1.27056 7.24919,-6.24944 15.21319,-11.06418 7.964,-4.81473 20.85874,-12.833 28.65499,-17.81836 7.79625,-4.98538 34.83,-19.31224 60.075,-31.83747 25.245,-12.52525 50.76,-25.98855 56.7,-29.91849 5.94,-3.92993 17.4825,-10.62223 25.65,-14.87178 l 14.85,-7.72649 -6.01592,-0.96294 c -6.29697,-1.00793 -5.63732,-3.73417 -5.63732,-7.53891 0,-3.52272 2.64457,-7.44482 5.81958,-8.630907 3.31401,-1.238004 -0.18476,-2.65071 34.18366,3.242167 13.365,2.29158 42.82875,6.35254 65.475,9.02434 22.64625,2.67182 54.84375,6.9287 71.55,9.45975 47.48359,7.19392 57.22464,8.50017 80.325,10.77135 34.00461,3.34328 52.74507,6.10342 69.94424,10.30157 8.76935,2.14049 17.5781,3.95838 19.575,4.03974 2.56392,0.10449 1.91332,0.48582 -2.2142,1.29794 -4.0848,0.80371 -7.3445,2.69521 -10.82445,6.28105 -4.92122,5.07098 -8.86044,7.24221 -83.90559,46.24731 -37.69313,19.5912 -47.07702,25.14284 -84.85969,50.20419 l -30.18469,20.02159 c -6.38734,3.89021 -3.92679,2.52126 -12.21816,5.34377 -2.82767,0.9985 -15.47197,1.50388 -35.94007,1.4365 -33.17874,-0.10922 -49.73883,-1.43773 -125.69739,-10.08368 -22.64625,-2.5777 -58.185,-6.24016 -78.975,-8.1388 -35.63137,-3.25401 -70.8544,-7.28437 -89.1,-10.19517 -12.37838,-1.97477 -11.91286,-2.19406 -10.82641,5.09988 0.52534,3.52687 4.80364,23.72625 9.50735,44.8875 12.6444,56.88521 17.23856,81.41251 29.07954,155.25 5.89403,36.75375 12.8469,78.85438 15.45081,93.55694 3.43615,19.40169 4.36163,27.42841 3.37506,29.27185 -1.68404,3.14668 -6.17212,1.83982 46.56365,13.55848 23.76,5.27981 53.83125,12.25677 66.825,15.50435 63.06156,15.76122 89.80273,20.57496 121.3427,21.8432 30.14458,1.21213 31.19766,0.41534 33.85573,-25.61588 5.91334,-57.91097 7.8332,-95.07407 8.8033,-170.40755 0.41123,-31.93498 1.33177,-66.25873 2.04565,-76.275 1.54991,-21.74639 4.20379,-51.83645 4.61039,-52.27286 0.33327,-0.35774 3.0332,49.65313 5.55587,102.91147 3.07287,64.8741 0.8737,171.77586 -4.1858,203.47276 -0.96348,6.0361 -5.22485,11.85224 -8.6839,11.85224 -1.38055,0 -3.77069,1.77036 -5.31144,3.93413 -4.88487,6.86017 -12.25592,9.32668 -32.4825,10.86932 -10.02375,0.76451 -19.44,1.29558 -20.925,1.1802 -1.485,-0.11543 -10.90125,-0.64272 -20.925,-1.17185 z m 82.97915,-373.75127 c 8.82985,-3.26597 11.06401,-8.87072 37.17085,-25.81883 26.9263,-17.4801 43.56573,-27.15444 66.04758,-38.40077 34.3773,-17.19693 69.82258,-32.37971 95.95242,-41.10064 11.83837,-3.95111 18.85664,-7.46334 17.45145,-8.73342 -0.31705,-0.28656 -23.3577,-1.22236 -51.20145,-2.07954 -53.90059,-1.65936 -55.20839,-1.7596 -115.425,-8.84714 -21.5325,-2.53438 -54.03375,-6.21455 -72.225,-8.17813 -18.19125,-1.96358 -43.62223,-5.33136 -56.51328,-7.48394 L 461.19063,118.026 442.7789,132.31492 c -10.12645,7.85891 -20.75655,16.1998 -23.62246,18.53533 -8.66056,7.05779 -22.89283,15.30373 -56.80054,32.90935 -30.88163,16.0344 -38.08623,20.22996 -71.41386,41.58737 l -14.62515,9.37227 4.50015,0.92383 c 2.47507,0.5081 20.90264,2.51909 40.95014,4.46884 55.56042,5.40362 84.16539,9.06855 143.775,18.42074 37.80921,5.93191 62.12326,8.86512 75.61276,9.1218 10.25858,0.91332 17.40419,-2.55251 22.21639,-5.07226 z m -99.10161,165.97248 c -5.58619,-5.98004 -8.6891,-17.46331 -8.77726,-32.48301 -0.098,-16.68912 2.28121,-25.8915 8.23266,-31.84295 5.60359,-5.60358 9.59224,-5.842 15.43836,-0.92282 10.81212,9.0978 21.87807,51.8064 15.1631,58.52137 -0.72773,0.72773 -3.02944,-5.72642 -5.69885,-15.9799 -4.77658,-18.34743 -12.56666,-36.7757 -15.54599,-36.7757 -4.17163,0 -5.51561,4.31673 -5.42383,17.42093 0.0765,10.93405 0.76076,14.87369 4.3875,25.2643 5.1072,14.63211 5.19741,15.93084 1.29638,18.66322 -4.07563,2.85469 -4.80241,2.70524 -9.07207,-1.86544 z M 328.18543,427.4423 c -8.81631,-8.23566 -15.19926,-28.245 -16.21088,-50.81804 -0.82084,-18.31612 0.6148,-22.96474 8.62022,-27.91236 3.70039,-2.28696 5.25208,-2.52258 9.28302,-1.40958 7.78017,2.1482 15.65167,7.42442 23.7089,15.89193 14.66023,15.40671 18.67332,27.18786 14.01325,41.13837 l -2.42651,7.26404 -1.65746,-9.7612 c -2.22174,-13.08422 -6.24726,-20.88727 -15.60121,-30.24122 -7.9269,-7.9269 -17.74588,-14.08556 -20.11889,-12.61896 -2.181,1.34793 -1.45886,17.15778 1.27133,27.83271 1.41625,5.53752 4.7575,15.71941 7.425,22.62642 5.4281,14.05517 5.77748,16.56689 2.72855,19.61582 -3.10447,3.10447 -6.52408,2.60621 -11.03532,-1.60793 z"
       id="path948"
       inkscape:connector-curvature="0"
       sodipodi:nodetypes="csscsscccsccsssaassscsssccssssacccccscsscsscccsscscscccsscssssccccssccsssscsssssssssscscscccccssscsssscssssccssccscssscscscscsccscccssccsc" />
  </g>
</svg>
